<svg width="74" height="74" viewBox="0 0 74 74" fill="none" xmlns="http://www.w3.org/2000/svg">
<g filter="url(#filter0_d)">
<rect x="10" y="6" width="54" height="54" rx="10" fill="white"/>
</g>
<path fill-rule="evenodd" clip-rule="evenodd" d="M45.34 24.03L45.5 24C45.78 24 46 24.22 46 24.5V39.62C46 39.85 45.85 40.03 45.64 40.1L40 42L34 39.9L28.66 41.97L28.5 42C28.22 42 28 41.78 28 41.5V26.38C28 26.15 28.15 25.97 28.36 25.9L34 24L40 26.1L45.34 24.03ZM39 27.87L35 26.47V38.13L39 39.53V27.87ZM30 27.46L33 26.45V38.15L30 39.31V27.46ZM41 39.55L44 38.54V26.7L41 27.86V39.55Z" fill="black"/>
<defs>
<filter id="filter0_d" x="0" y="0" width="74" height="74" filterUnits="userSpaceOnUse" color-interpolation-filters="sRGB">
<feFlood flood-opacity="0" result="BackgroundImageFix"/>
<feColorMatrix in="SourceAlpha" type="matrix" values="0 0 0 0 0 0 0 0 0 0 0 0 0 0 0 0 0 0 127 0"/>
<feOffset dy="4"/>
<feGaussianBlur stdDeviation="5"/>
<feColorMatrix type="matrix" values="0 0 0 0 0 0 0 0 0 0 0 0 0 0 0 0 0 0 0.05 0"/>
<feBlend mode="normal" in2="BackgroundImageFix" result="effect1_dropShadow"/>
<feBlend mode="normal" in="SourceGraphic" in2="effect1_dropShadow" result="shape"/>
</filter>
</defs>
</svg>
